<svg width="24" height="24" viewBox="0 0 24 24" fill="none" xmlns="http://www.w3.org/2000/svg">
<g filter="url(#filter0_d_4_38)">
<g clip-path="url(#clip0_4_38)">
<rect width="24" height="22" rx="4" fill="#DCDCDC"/>
<rect x="0.75" y="0.75" width="22.5" height="20.5" rx="3.25" fill="#DCDCDC" stroke="#696969" stroke-width="1.5"/>
<path d="M9.11133 16.7207L10.7051 16.5273C10.7559 16.9336 10.8926 17.2441 11.1152 17.459C11.3379 17.6738 11.6074 17.7812 11.9238 17.7812C12.2637 17.7812 12.5488 17.6523 12.7793 17.3945C13.0137 17.1367 13.1309 16.7891 13.1309 16.3516C13.1309 15.9375 13.0195 15.6094 12.7969 15.3672C12.5742 15.125 12.3027 15.0039 11.9824 15.0039C11.7715 15.0039 11.5195 15.0449 11.2266 15.127L11.4082 13.7852C11.8535 13.7969 12.1934 13.7012 12.4277 13.498C12.6621 13.291 12.7793 13.0176 12.7793 12.6777C12.7793 12.3887 12.6934 12.1582 12.5215 11.9863C12.3496 11.8145 12.1211 11.7285 11.8359 11.7285C11.5547 11.7285 11.3145 11.8262 11.1152 12.0215C10.916 12.2168 10.7949 12.502 10.752 12.877L9.23438 12.6191C9.33984 12.0996 9.49805 11.6855 9.70898 11.377C9.92383 11.0645 10.2207 10.8203 10.5996 10.6445C10.9824 10.4648 11.4102 10.375 11.8828 10.375C12.6914 10.375 13.3398 10.6328 13.8281 11.1484C14.2305 11.5703 14.4316 12.0469 14.4316 12.5781C14.4316 13.332 14.0195 13.9336 13.1953 14.3828C13.6875 14.4883 14.0801 14.7246 14.373 15.0918C14.6699 15.459 14.8184 15.9023 14.8184 16.4219C14.8184 17.1758 14.543 17.8184 13.9922 18.3496C13.4414 18.8809 12.7559 19.1465 11.9355 19.1465C11.1582 19.1465 10.5137 18.9238 10.002 18.4785C9.49023 18.0293 9.19336 17.4434 9.11133 16.7207Z" fill="#696969"/>
</g>
</g>
<defs>
<filter id="filter0_d_4_38" x="0" y="0" width="24" height="24" filterUnits="userSpaceOnUse" color-interpolation-filters="sRGB">
<feFlood flood-opacity="0" result="BackgroundImageFix"/>
<feColorMatrix in="SourceAlpha" type="matrix" values="0 0 0 0 0 0 0 0 0 0 0 0 0 0 0 0 0 0 127 0" result="hardAlpha"/>
<feOffset dy="2"/>
<feComposite in2="hardAlpha" operator="out"/>
<feColorMatrix type="matrix" values="0 0 0 0 0.752941 0 0 0 0 0.752941 0 0 0 0 0.752941 0 0 0 1 0"/>
<feBlend mode="normal" in2="BackgroundImageFix" result="effect1_dropShadow_4_38"/>
<feBlend mode="normal" in="SourceGraphic" in2="effect1_dropShadow_4_38" result="shape"/>
</filter>
<clipPath id="clip0_4_38">
<rect width="24" height="22" rx="4" fill="white"/>
</clipPath>
</defs>
</svg>
