<svg width="24" height="24" viewBox="0 0 24 24" fill="none" xmlns="http://www.w3.org/2000/svg">
<rect x="0.5" y="0.5" width="23" height="23" rx="3.5" stroke="#696969"/>
<path d="M15.2012 18.9863V20H9.52344C9.51563 19.7461 9.55664 19.502 9.64648 19.2676C9.79102 18.8809 10.0215 18.5 10.3379 18.125C10.6582 17.75 11.1191 17.3164 11.7207 16.8242C12.6543 16.0586 13.2852 15.4531 13.6133 15.0078C13.9414 14.5586 14.1055 14.1348 14.1055 13.7363C14.1055 13.3184 13.9551 12.9668 13.6543 12.6816C13.3574 12.3926 12.9688 12.248 12.4883 12.248C11.9805 12.248 11.5742 12.4004 11.2695 12.7051C10.9648 13.0098 10.8105 13.4316 10.8066 13.9707L9.72266 13.8594C9.79688 13.0508 10.0762 12.4355 10.5605 12.0137C11.0449 11.5879 11.6953 11.375 12.5117 11.375C13.3359 11.375 13.9883 11.6035 14.4688 12.0605C14.9492 12.5176 15.1895 13.084 15.1895 13.7598C15.1895 14.1035 15.1191 14.4414 14.9785 14.7734C14.8379 15.1055 14.6035 15.4551 14.2754 15.8223C13.9512 16.1895 13.4102 16.6934 12.6523 17.334C12.0195 17.8652 11.6133 18.2266 11.4336 18.418C11.2539 18.6055 11.1055 18.7949 10.9883 18.9863H15.2012Z" fill="#696969"/>
</svg>
