<svg width="24" height="24" viewBox="0 0 24 24" fill="none" xmlns="http://www.w3.org/2000/svg">
<g filter="url(#filter0_d_4_37)">
<g clip-path="url(#clip0_4_37)">
<rect width="24" height="22" rx="4" fill="#DCDCDC"/>
<rect x="0.75" y="0.75" width="22.5" height="20.5" rx="3.25" fill="#DCDCDC" stroke="#696969" stroke-width="1.5"/>
<path d="M14.7305 17.4707V19H8.95898C9.02148 18.4219 9.20898 17.875 9.52148 17.3594C9.83398 16.8398 10.4512 16.1523 11.373 15.2969C12.1152 14.6055 12.5703 14.1367 12.7383 13.8906C12.9648 13.5508 13.0781 13.2148 13.0781 12.8828C13.0781 12.5156 12.9785 12.2344 12.7793 12.0391C12.584 11.8398 12.3125 11.7402 11.9648 11.7402C11.6211 11.7402 11.3477 11.8437 11.1445 12.0508C10.9414 12.2578 10.8242 12.6016 10.793 13.082L9.15234 12.918C9.25 12.0117 9.55664 11.3613 10.0723 10.9668C10.5879 10.5723 11.2324 10.375 12.0059 10.375C12.8535 10.375 13.5195 10.6035 14.0039 11.0605C14.4883 11.5176 14.7305 12.0859 14.7305 12.7656C14.7305 13.1523 14.6602 13.5215 14.5195 13.873C14.3828 14.2207 14.1641 14.5859 13.8633 14.9687C13.6641 15.2227 13.3047 15.5879 12.7852 16.0645C12.2656 16.541 11.9355 16.8574 11.7949 17.0137C11.6582 17.1699 11.5469 17.3223 11.4609 17.4707H14.7305Z" fill="#696969"/>
</g>
</g>
<defs>
<filter id="filter0_d_4_37" x="0" y="0" width="24" height="24" filterUnits="userSpaceOnUse" color-interpolation-filters="sRGB">
<feFlood flood-opacity="0" result="BackgroundImageFix"/>
<feColorMatrix in="SourceAlpha" type="matrix" values="0 0 0 0 0 0 0 0 0 0 0 0 0 0 0 0 0 0 127 0" result="hardAlpha"/>
<feOffset dy="2"/>
<feComposite in2="hardAlpha" operator="out"/>
<feColorMatrix type="matrix" values="0 0 0 0 0.752941 0 0 0 0 0.752941 0 0 0 0 0.752941 0 0 0 1 0"/>
<feBlend mode="normal" in2="BackgroundImageFix" result="effect1_dropShadow_4_37"/>
<feBlend mode="normal" in="SourceGraphic" in2="effect1_dropShadow_4_37" result="shape"/>
</filter>
<clipPath id="clip0_4_37">
<rect width="24" height="22" rx="4" fill="white"/>
</clipPath>
</defs>
</svg>
