<svg width="24" height="24" viewBox="0 0 24 24" fill="none" xmlns="http://www.w3.org/2000/svg">
<rect x="0.5" y="0.5" width="23" height="23" rx="3.5" stroke="#696969"/>
<path d="M9.66406 17.7324L10.7188 17.5918C10.8398 18.1895 11.0449 18.6211 11.334 18.8867C11.627 19.1484 11.9824 19.2793 12.4004 19.2793C12.8965 19.2793 13.3145 19.1074 13.6543 18.7637C13.998 18.4199 14.1699 17.9941 14.1699 17.4863C14.1699 17.002 14.0117 16.6035 13.6953 16.291C13.3789 15.9746 12.9766 15.8164 12.4883 15.8164C12.2891 15.8164 12.041 15.8555 11.7441 15.9336L11.8613 15.0078C11.9316 15.0156 11.9883 15.0195 12.0313 15.0195C12.4805 15.0195 12.8848 14.9023 13.2441 14.668C13.6035 14.4336 13.7832 14.0723 13.7832 13.584C13.7832 13.1973 13.6523 12.877 13.3906 12.623C13.1289 12.3691 12.791 12.2422 12.377 12.2422C11.9668 12.2422 11.625 12.3711 11.3516 12.6289C11.0781 12.8867 10.9023 13.2734 10.8242 13.7891L9.76953 13.6016C9.89844 12.8945 10.1914 12.3477 10.6484 11.9609C11.1055 11.5703 11.6738 11.375 12.3535 11.375C12.8223 11.375 13.2539 11.4766 13.6484 11.6797C14.043 11.8789 14.3438 12.1523 14.5508 12.5C14.7617 12.8477 14.8672 13.2168 14.8672 13.6074C14.8672 13.9785 14.7676 14.3164 14.5684 14.6211C14.3691 14.9258 14.0742 15.168 13.6836 15.3477C14.1914 15.4648 14.5859 15.709 14.8672 16.0801C15.1484 16.4473 15.2891 16.9082 15.2891 17.4629C15.2891 18.2129 15.0156 18.8496 14.4688 19.373C13.9219 19.8926 13.2305 20.1523 12.3945 20.1523C11.6406 20.1523 11.0137 19.9277 10.5137 19.4785C10.0176 19.0293 9.73438 18.4473 9.66406 17.7324Z" fill="#696969"/>
</svg>
